<svg height="734" width="720" xmlns="http://www.w3.org/2000/svg">
<rect height="734" fill="#555" width="720"></rect>
<text fill="#7f7" font-family="Courier New" font-size="12" xml:space="preserve">
<tspan x="10" y="26"></tspan>

<tspan x="10" y="42">\x1b[35m[MODE_BUILD=buildApp]\x1b[0m - 2019-09-08T09:17:45.423Z - npm-testing /home/travis/build\</tspan>
<tspan x="10" y="58">/kaizhu256/node-aa-bb</tspan>

<tspan x="10" y="74"></tspan>

<tspan x="10" y="90"></tspan>

<tspan x="10" y="106">buildApp - merged test-report from file /home/travis/build/kaizhu256/node-aa-bb/tmp/build/test-r\</tspan>
<tspan x="10" y="122">eport.json</tspan>

<tspan x="10" y="138">&gt; http-server listening on port 36513</tspan>

<tspan x="10" y="154">db - dropping database ...</tspan>

<tspan x="10" y="170"></tspan>

<tspan x="10" y="186">buildApp - merged test-report from file /home/travis/build/kaizhu256/node-aa-bb/tmp/build/test-r\</tspan>
<tspan x="10" y="202">eport.json</tspan>

<tspan x="10" y="218">jslint - 291ms /home/travis/build/kaizhu256/node-aa-bb/README.md</tspan>

<tspan x="10" y="234">jslint - 61ms /home/travis/build/kaizhu256/node-aa-bb/lib.aa_bb.js</tspan>

<tspan x="10" y="250">jslint - 1ms /home/travis/build/kaizhu256/node-aa-bb/npm_scripts.sh</tspan>

<tspan x="10" y="266">jslint - 0ms /home/travis/build/kaizhu256/node-aa-bb/package.json</tspan>

<tspan x="10" y="282">jslint - 17ms /home/travis/build/kaizhu256/node-aa-bb/test.js</tspan>

<tspan x="10" y="298">testRunDefault - 5026 ms - testCase pending - testCase_buildApp_default ...</tspan>

<tspan x="10" y="314">http-server listening on port 37055</tspan>

<tspan x="10" y="330">testRunDefault - 10037 ms - testCase pending - testCase_buildApp_default ...</tspan>

<tspan x="10" y="346">testRunDefault - 10949 ms - [node test-case 1 of 1 passed] - testCase_buildApp_default</tspan>

<tspan x="10" y="362"></tspan>

<tspan x="10" y="378">buildApp - merged test-report from file /home/travis/build/kaizhu256/node-aa-bb/tmp/build/test-r\</tspan>
<tspan x="10" y="394">eport.json</tspan>

<tspan x="10" y="410"></tspan>

<tspan x="10" y="426">-------------------------------------------------------</tspan>

<tspan x="10" y="442">| test-report - buildApidoc - node - linux v12.10.0 - 2019-09-08T09:17:41.664Z</tspan>

<tspan x="10" y="458">|   10950 ms            0 failed        1 passed      |</tspan>

<tspan x="10" y="474">-------------------------------------------------------</tspan>

<tspan x="10" y="490">| test-report - buildApp - node - linux v12.10.0 - 2019-09-08T09:17:23.136Z</tspan>

<tspan x="10" y="506">|   16502 ms            0 failed        7 passed      |</tspan>

<tspan x="10" y="522">-------------------------------------------------------</tspan>

<tspan x="10" y="538">| test-report - npmTest - browser - / - Mozilla/5.0 (X11; Linux x86_64) AppleWebKit/537.36 (KHTM\</tspan>
<tspan x="10" y="554">L, like Gecko) HeadlessChrome/76.0.3809.132 Safari/537.36 - 2019-09-08T09:17:35.617Z</tspan>

<tspan x="10" y="570">|    1004 ms            0 failed        1 passed      |</tspan>

<tspan x="10" y="586">-------------------------------------------------------</tspan>

<tspan x="10" y="602"></tspan>

<tspan x="10" y="618">created test-report file /home/travis/build/kaizhu256/node-aa-bb/tmp/build/test-report.html</tspan>

<tspan x="10" y="634"></tspan>

<tspan x="10" y="650"></tspan>

<tspan x="10" y="666">buildApp - 0 failed tests</tspan>

<tspan x="10" y="682"></tspan>

<tspan x="10" y="698"></tspan>

<tspan x="10" y="714">\x1b[35m[MODE_BUILD=buildApp]\x1b[0m - 2019-09-08T09:17:53.915Z - EXIT_CODE - 0</tspan>

</text>
</svg>
